<?xml version="1.0" standalone="no"?>
<!DOCTYPE svg PUBLIC "-//W3C//DTD SVG 20010904//EN"
 "http://www.w3.org/TR/2001/REC-SVG-20010904/DTD/svg10.dtd">
<svg version="1.0" xmlns="http://www.w3.org/2000/svg"
 width="800.000000pt" height="800.000000pt" viewBox="0 0 800.000000 800.000000"
 preserveAspectRatio="xMidYMid meet">

<g transform="translate(0.000000,800.000000) scale(0.100000,-0.100000)"
fill="#000000" stroke="none">
<path d="M3827 7980 c3 -11 9 -20 15 -20 14 0 52 -38 54 -56 1 -9 10 -21 20
-28 11 -9 15 -21 11 -37 -3 -14 0 -32 9 -43 8 -11 14 -14 14 -8 0 7 5 12 11
12 5 0 8 -4 5 -9 -3 -4 8 -8 24 -7 20 1 29 5 25 13 -2 7 0 23 5 35 9 23 9 23
9 2 1 -16 7 -21 26 -21 22 0 24 3 20 33 -5 39 -3 40 29 18 30 -19 40 -6 26 32
-11 27 4 89 19 80 3 -2 12 2 19 10 11 12 2 14 -57 14 -52 0 -70 -4 -75 -15 -3
-8 -1 -15 4 -15 6 0 10 -4 10 -10 0 -18 -32 -10 -37 9 -6 24 -31 31 -120 31
-66 0 -71 -1 -66 -20z m80 -22 c-3 -8 -6 -5 -6 6 -1 11 2 17 5 13 3 -3 4 -12
1 -19z m100 -107 c2 -31 -12 -15 -21 23 -6 24 -5 26 6 15 8 -8 14 -25 15 -38z
m-47 8 c0 -5 -4 -9 -10 -9 -5 0 -10 7 -10 16 0 8 5 12 10 9 6 -3 10 -10 10
-16z"/>
<path d="M2836 7816 c5 -15 3 -18 -11 -13 -19 8 -117 -2 -136 -13 -7 -5 -14
-25 -15 -46 -4 -43 -10 -52 -26 -36 -8 8 -17 5 -34 -15 -13 -15 -32 -25 -48
-25 -25 0 -38 -18 -13 -18 6 0 -6 -9 -28 -18 -24 -11 -35 -21 -28 -25 9 -6 6
-14 -8 -28 -15 -15 -17 -24 -10 -33 8 -9 0 -13 -32 -15 -46 -2 -58 -8 -40 -19
8 -5 9 -13 3 -22 -5 -9 -5 -19 2 -27 7 -9 7 -13 -2 -13 -7 0 -10 -7 -6 -15 5
-15 -1 -17 -56 -18 -15 0 -24 -5 -21 -10 3 -6 -3 -17 -13 -25 -19 -14 -18 -15
1 -8 17 5 17 4 -4 -14 -13 -11 -30 -20 -37 -20 -36 0 -144 -99 -144 -131 0
-11 -5 -19 -10 -19 -6 0 -20 -9 -32 -20 -12 -11 -30 -20 -41 -20 -21 0 -97
-40 -97 -51 0 -4 -11 -10 -25 -13 -14 -4 -25 -10 -25 -15 0 -8 -64 -76 -91
-96 -8 -6 -21 -10 -29 -10 -23 2 -50 -14 -50 -29 0 -8 -7 -19 -15 -26 -8 -7
-15 -24 -15 -39 -1 -23 -2 -24 -13 -9 -11 14 -19 15 -55 5 l-41 -11 3 -60 c2
-34 7 -69 11 -79 5 -12 0 -25 -18 -41 -14 -13 -23 -26 -21 -29 3 -3 -5 -11
-18 -18 -44 -23 -52 -59 -13 -59 18 0 23 -4 19 -15 -4 -8 -12 -15 -19 -15 -8
0 -11 -8 -8 -20 4 -15 11 -19 24 -15 11 4 19 2 19 -4 0 -18 40 -23 70 -7 17 8
30 10 30 5 0 -5 -11 -11 -25 -15 -14 -3 -25 -12 -25 -18 0 -18 21 -35 36 -29
8 3 14 -1 14 -11 0 -14 19 -21 44 -17 5 1 16 -1 25 -5 28 -12 41 -13 34 -1 -4
7 0 8 11 4 10 -4 26 -7 37 -7 14 0 19 -7 19 -30 0 -20 5 -30 15 -30 8 0 15 -8
15 -17 0 -15 2 -14 14 2 13 18 17 19 51 6 27 -9 39 -10 44 -2 4 6 26 12 50 13
23 1 44 5 47 10 3 4 21 8 40 8 27 0 34 -4 34 -20 0 -11 3 -20 8 -20 10 0 39
20 29 20 -12 0 59 60 72 60 6 0 14 7 17 15 4 8 10 12 15 9 5 -3 9 1 9 8 0 9 3
9 10 -2 6 -10 10 -11 10 -2 0 6 7 12 15 12 8 0 15 4 15 9 0 5 15 13 33 16 17
4 40 14 50 23 9 8 17 12 17 8 0 -4 15 8 33 27 28 30 34 33 46 20 16 -18 38 -2
25 19 -5 7 -10 22 -11 33 -2 11 -8 22 -13 23 -6 2 -8 8 -4 13 3 5 -5 9 -17 9
-22 0 -22 1 -4 14 18 13 18 13 0 23 -17 10 -18 12 -2 28 9 9 17 21 17 26 0 5
5 9 10 9 6 0 10 -7 10 -15 0 -8 7 -15 15 -15 8 0 49 -11 91 -25 95 -31 102
-31 139 1 17 14 35 29 40 32 6 4 16 19 22 35 9 19 20 27 38 27 15 0 25 6 25
15 0 8 9 19 20 25 11 6 20 17 20 25 0 8 4 15 8 15 4 0 8 10 9 21 1 12 4 23 6
26 8 8 68 -12 67 -22 -1 -6 -6 -9 -10 -8 -5 1 -7 -5 -5 -15 2 -9 4 -23 4 -29
1 -7 8 -13 17 -13 14 0 14 3 4 15 -11 13 -7 15 28 15 36 0 41 3 40 23 -1 12
-5 27 -10 33 -10 13 6 28 41 39 24 7 24 8 6 21 -18 13 -18 14 4 14 12 0 20 4
16 9 -3 6 12 11 32 13 33 3 38 6 35 26 -3 19 0 22 22 18 18 -3 26 0 26 10 0 8
10 14 24 14 14 0 28 5 31 10 3 6 16 10 28 10 12 0 32 12 45 28 13 15 20 20 16
12 -7 -13 -5 -13 9 -1 9 7 17 21 17 30 0 9 5 22 12 29 9 9 9 12 -1 12 -7 0 -9
5 -5 11 11 18 -16 28 -47 17 -23 -8 -32 -6 -45 7 -11 11 -20 13 -27 6 -6 -6
-18 -6 -33 -1 -14 6 -26 6 -29 0 -3 -5 -17 -6 -32 -4 -15 3 -30 0 -34 -8 -7
-10 -9 -10 -9 0 0 15 -27 16 -32 1 -4 -12 -47 -20 -110 -21 -21 0 -38 -4 -38
-9 0 -5 -6 -9 -14 -9 -7 0 -19 -6 -25 -13 -6 -8 -29 -20 -51 -27 -22 -7 -45
-19 -51 -26 -6 -7 -17 -10 -25 -7 -8 3 -26 -7 -42 -23 -50 -51 -57 -55 -86
-44 -20 7 -26 6 -26 -4 0 -17 -59 -76 -77 -76 -7 0 -13 -8 -13 -17 0 -9 -3
-14 -6 -10 -3 3 -23 -3 -45 -15 -21 -11 -46 -21 -56 -23 -10 -2 -19 -4 -20 -5
-2 -2 -6 -3 -10 -4 -23 -5 -93 -41 -93 -48 0 -4 -8 -8 -18 -8 -10 0 -28 -8
-42 -17 -18 -12 -25 -14 -28 -4 -3 9 -8 9 -21 -3 -15 -13 -16 -11 -18 26 -1
30 2 38 13 34 7 -3 16 -1 19 4 4 6 -1 10 -10 10 -10 0 -15 6 -13 18 2 9 10 16
16 15 7 -2 12 7 12 20 0 26 19 62 20 37 1 -12 3 -11 11 3 6 9 14 15 20 12 13
-9 11 9 -3 23 -9 9 -5 16 15 32 15 12 27 29 27 39 0 10 17 33 38 52 45 42 92
96 92 106 0 5 18 21 40 36 22 16 40 34 40 42 0 7 9 17 20 20 11 3 26 12 32 18
35 33 71 55 83 51 7 -3 16 -1 20 5 3 6 -1 11 -9 11 -9 0 -16 5 -16 10 0 6 5
10 11 10 6 0 18 9 27 20 10 11 31 23 47 26 42 7 95 33 102 50 3 8 11 14 19 14
8 0 14 7 14 16 0 8 4 13 8 10 5 -3 25 6 45 19 20 14 41 25 46 25 6 0 11 4 11
9 0 12 92 11 108 -1 9 -8 12 -6 12 7 0 11 5 15 15 11 18 -7 47 3 40 14 -2 4
-16 5 -30 2 -15 -2 -25 0 -25 8 0 11 -33 50 -34 40 -1 -7 -41 23 -51 39 -6 11
-4 13 8 8 10 -3 17 -2 17 3 0 13 -42 40 -52 34 -5 -3 -14 -1 -21 4 -13 10 -28
12 -94 14 -23 1 -40 5 -37 10 3 4 -6 4 -20 -2 -14 -5 -26 -6 -26 -2 0 4 -9 8
-20 8 -15 0 -19 -5 -14 -20z m-76 -116 c0 -5 -4 -10 -10 -10 -5 0 -10 5 -10
10 0 6 5 10 10 10 6 0 10 -4 10 -10z m-340 -319 c0 -5 -7 -11 -15 -15 -15 -5
-20 5 -8 17 9 10 23 9 23 -2z m10 -531 c0 -5 -4 -10 -10 -10 -5 0 -10 5 -10
10 0 6 5 10 10 10 6 0 10 -4 10 -10z m-770 -20 c0 -11 -4 -20 -10 -20 -5 0
-10 7 -10 16 0 8 -4 12 -10 9 -5 -3 -10 -1 -10 4 0 6 9 11 20 11 13 0 20 -7
20 -20z m825 -122 c-11 -17 -12 -25 -2 -37 10 -14 10 -14 -4 -3 -14 10 -15 18
-6 42 6 16 15 26 19 24 5 -3 2 -15 -7 -26z m-920 -98 c-3 -5 -11 -10 -16 -10
-6 0 -7 5 -4 10 3 6 11 10 16 10 6 0 7 -4 4 -10z"/>
<path d="M4110 7755 c0 -8 4 -15 10 -15 5 0 7 7 4 15 -4 8 -8 15 -10 15 -2 0
-4 -7 -4 -15z"/>
<path d="M4080 7748 c0 -9 7 -22 17 -29 15 -13 15 -12 3 11 -17 34 -20 36 -20
18z"/>
<path d="M4148 7668 c-3 -7 1 -17 9 -23 7 -5 14 -23 15 -40 3 -34 58 -103 58
-72 0 9 -7 17 -15 17 -8 0 -15 5 -15 11 0 5 5 7 10 4 15 -9 12 10 -7 46 -27
49 -50 73 -55 57z"/>
<path d="M3200 7610 c0 -11 2 -20 4 -20 2 0 6 9 9 20 3 11 1 20 -4 20 -5 0 -9
-9 -9 -20z"/>
<path d="M4242 7510 c0 -14 2 -19 5 -12 2 6 2 18 0 25 -3 6 -5 1 -5 -13z"/>
<path d="M4217 7490 c6 -21 21 -35 29 -27 6 6 -18 47 -27 47 -4 0 -5 -9 -2
-20z"/>
<path d="M4267 7454 c-9 -10 2 -24 18 -24 9 0 12 6 9 15 -6 16 -17 19 -27 9z"/>
<path d="M4285 7390 c-3 -6 1 -13 10 -16 21 -9 26 -2 10 13 -9 8 -16 9 -20 3z"/>
<path d="M4317 7343 c-5 -7 -5 -17 -2 -23 3 -5 1 -10 -5 -10 -7 0 -1 -13 13
-30 14 -16 27 -35 30 -42 3 -10 7 -10 17 -1 10 9 7 18 -13 45 -14 18 -27 42
-29 53 -2 14 -6 16 -11 8z"/>
<path d="M4361 7212 c-7 -14 -6 -25 4 -39 16 -23 37 -95 39 -135 0 -16 5 -28
10 -28 4 0 6 -6 3 -13 -8 -21 37 -9 51 13 9 15 8 22 -3 34 -8 8 -15 20 -15 26
0 6 -7 13 -15 16 -8 4 -15 13 -15 21 0 8 -7 21 -15 29 -8 9 -15 33 -15 55 0
42 -13 51 -29 21z"/>
<path d="M4592 7198 c-7 -7 -12 -9 -12 -5 0 4 -9 -1 -21 -11 -24 -20 -43 -60
-40 -85 3 -26 27 -68 34 -60 4 3 7 2 7 -4 0 -5 17 -18 38 -27 79 -36 138 28
112 124 -17 62 -85 101 -118 68z"/>
<path d="M4477 6973 c-7 -13 -1 -132 7 -140 4 -4 4 0 1 9 -4 9 -2 19 4 23 6 3
11 -1 11 -9 0 -9 5 -16 10 -16 14 0 12 11 -6 31 -10 11 -16 37 -17 63 -1 46
-2 52 -10 39z"/>
<path d="M4699 6924 c-7 -8 -26 -15 -43 -14 -17 1 -35 1 -41 0 -20 -4 -50 2
-64 13 -12 10 -13 7 -8 -23 4 -18 13 -38 20 -42 17 -11 57 -10 57 1 0 5 10 11
23 15 20 5 89 66 75 66 -3 0 -11 -7 -19 -16z"/>
<path d="M4529 6796 c-10 -20 -7 -29 15 -59 14 -18 26 -41 26 -50 0 -9 4 -19
10 -22 17 -10 8 48 -11 70 -21 25 -36 71 -20 61 7 -5 9 -1 5 8 -8 22 -13 20
-25 -8z"/>
<path d="M3168 6746 c-10 -7 -15 -16 -11 -19 3 -4 1 -7 -5 -7 -7 0 -12 -6 -12
-13 0 -6 -13 -18 -30 -25 -16 -7 -32 -22 -35 -33 -4 -10 -15 -19 -26 -19 -10
0 -19 -5 -19 -10 0 -6 -12 -16 -26 -22 -21 -10 -27 -9 -35 3 -7 12 -9 11 -9
-2 0 -9 -7 -20 -16 -23 -8 -3 -13 -10 -10 -14 7 -12 -40 -36 -54 -27 -7 4 -14
-1 -17 -14 -6 -24 -23 -27 -42 -8 -11 10 -12 9 -7 -1 7 -11 -24 -49 -43 -53
-26 -6 -81 -4 -81 2 0 5 -5 9 -11 9 -8 0 -8 -5 1 -15 14 -17 11 -18 -40 -19
-19 -1 -35 -5 -35 -9 0 -10 -45 -36 -63 -37 -7 0 -11 4 -7 9 3 6 -6 6 -25 1
-17 -5 -32 -5 -35 1 -4 5 -11 9 -16 9 -6 0 -8 -4 -5 -9 3 -5 -2 -15 -11 -22
-12 -10 -14 -10 -9 -1 5 8 -2 12 -23 12 -17 0 -31 -4 -31 -9 0 -5 -3 -16 -6
-25 -4 -11 -1 -16 10 -16 9 0 16 -3 16 -7 0 -13 233 -7 257 5 12 7 31 12 42
12 12 0 21 3 21 8 0 4 15 13 33 20 49 21 81 36 87 43 3 3 38 21 77 40 40 19
73 40 73 47 0 7 4 11 9 7 6 -3 15 4 21 15 6 11 17 20 25 20 8 0 15 6 15 14 0
20 30 48 45 42 7 -2 16 3 19 12 9 26 29 54 54 75 16 14 20 23 13 31 -7 9 -7
16 1 24 16 16 -3 15 -24 -2z"/>
<path d="M2905 6710 c-3 -5 -15 -10 -27 -10 -17 0 -18 -3 -8 -15 6 -8 9 -23 5
-35 -5 -15 -2 -20 10 -20 9 0 24 -8 33 -18 10 -10 13 -12 8 -5 -6 9 -5 18 2
25 7 7 12 24 12 39 0 30 -24 57 -35 39z"/>
<path d="M2826 6641 c-3 -5 1 -11 9 -15 15 -6 29 7 18 18 -9 9 -21 8 -27 -3z"/>
<path d="M2792 6590 c7 -10 14 -18 15 -16 6 6 -9 36 -18 36 -5 0 -4 -9 3 -20z"/>
<path d="M2705 6560 c-16 -7 -17 -9 -3 -9 9 -1 20 4 23 9 7 11 7 11 -20 0z"/>
<path d="M4602 6520 c-15 -24 -15 -30 -2 -30 6 0 10 7 10 15 0 8 5 15 10 15 6
0 10 5 10 10 0 16 -14 11 -28 -10z"/>
<path d="M5155 6530 c-75 -11 -132 -36 -199 -87 -64 -48 -70 -64 -40 -107 8
-11 14 -28 14 -38 0 -10 4 -18 8 -18 5 0 25 -33 46 -72 116 -226 159 -298 208
-353 90 -99 124 -139 111 -131 -7 4 -13 3 -13 -3 0 -5 8 -12 18 -15 26 -9 94
-75 87 -86 -3 -5 0 -12 6 -16 8 -5 9 -3 4 7 -8 13 10 -2 66 -53 10 -10 23 -18
29 -18 5 0 15 -9 22 -20 7 -11 21 -20 31 -20 11 0 15 -5 11 -11 -4 -7 0 -9 14
-5 11 4 23 2 27 -4 4 -6 3 -10 -2 -9 -19 3 -23 -2 -11 -15 9 -10 15 -11 20 -2
4 6 10 -3 14 -23 6 -26 9 -30 16 -17 13 23 31 20 23 -4 -4 -13 -2 -20 5 -18 7
2 15 -3 18 -11 2 -8 0 -11 -6 -7 -5 3 -13 -1 -16 -10 -11 -29 -6 -34 14 -14
24 24 37 26 37 5 0 -8 -4 -15 -9 -15 -20 0 -6 -18 19 -25 22 -5 24 -8 12 -16
-11 -8 -11 -12 -1 -16 6 -2 12 -11 12 -19 0 -8 3 -13 8 -13 4 1 16 1 26 0 20
-1 13 -16 -7 -16 -7 0 -13 -8 -15 -17 -2 -10 1 -18 7 -18 6 0 11 -7 11 -15 0
-8 -4 -15 -10 -15 -5 0 -10 -5 -10 -11 0 -6 9 -8 20 -4 11 3 20 2 20 -4 0 -16
-38 -23 -60 -11 -13 7 -20 7 -20 0 0 -5 -7 -10 -15 -10 -8 0 -15 -5 -15 -11 0
-7 10 -9 24 -7 14 3 31 1 38 -4 9 -6 7 -8 -7 -6 -17 3 -20 -3 -20 -40 0 -23
-3 -42 -7 -42 -8 0 -12 22 -9 52 1 9 -3 19 -9 23 -6 4 -10 -7 -10 -30 0 -31
-2 -34 -17 -27 -20 10 -43 5 -43 -9 0 -5 6 -9 14 -9 7 0 19 -7 26 -15 14 -17
7 -19 -20 -5 -15 8 -20 5 -29 -22 -8 -23 -8 -34 0 -39 7 -4 8 -9 1 -13 -6 -3
-16 9 -22 29 -6 19 -16 35 -21 35 -5 0 -9 16 -7 36 1 20 -3 39 -11 43 -9 6 -6
10 11 15 14 4 18 9 11 13 -7 2 -13 15 -13 29 0 17 -4 22 -15 18 -9 -4 -15 0
-15 10 0 9 5 16 10 16 6 0 10 5 10 10 0 6 -8 10 -17 10 -15 0 -16 2 -3 10 10
7 11 10 2 10 -7 0 -15 -7 -18 -15 -8 -20 -24 -9 -18 13 3 9 -2 5 -11 -11 -13
-22 -18 -25 -29 -15 -11 11 -11 15 3 26 12 10 13 15 4 18 -7 3 -13 18 -12 32
0 15 3 21 6 15 6 -16 23 -17 23 -3 0 6 -11 15 -25 20 -14 5 -25 13 -25 16 0 4
3 4 7 1 6 -7 33 11 33 22 0 3 -14 6 -30 7 -18 1 -37 9 -45 20 -7 10 -17 16
-21 12 -4 -4 -1 -14 5 -22 7 -8 14 -25 16 -38 1 -13 6 -32 11 -42 6 -15 4 -18
-9 -13 -11 4 -14 2 -10 -9 6 -16 23 -19 23 -4 0 6 5 10 10 10 6 0 10 -7 10
-15 0 -8 5 -15 11 -15 5 0 8 -4 5 -9 -3 -5 -16 -7 -29 -5 l-22 5 23 -10 c15
-7 22 -19 23 -38 0 -15 2 -50 5 -78 4 -42 -11 -135 -22 -135 -2 0 -15 5 -29
12 -18 8 -24 17 -19 30 3 10 1 18 -5 18 -6 0 -11 -4 -11 -10 0 -5 -7 -10 -15
-10 -9 0 -15 9 -15 25 0 19 -5 25 -17 23 -11 -2 -21 10 -32 42 -14 39 -20 45
-46 46 -22 0 -30 5 -29 17 1 9 -2 17 -6 17 -5 0 -11 10 -13 23 -4 19 -4 18 -6
-5 -2 -41 -51 -61 -51 -21 0 8 7 13 16 11 28 -5 24 40 -4 63 -26 20 -72 26
-72 9 0 -5 -5 -10 -10 -10 -15 0 -8 42 12 72 15 22 15 28 2 53 -11 21 -11 31
-3 41 9 11 6 16 -12 22 -20 8 -26 5 -37 -17 -21 -42 -30 -46 -38 -17 -4 18 -1
32 10 45 9 10 16 24 16 32 -1 10 -3 9 -11 -3 -14 -24 -32 -23 -24 1 4 13 0 23
-12 30 -17 9 -17 11 5 26 30 22 28 37 -4 25 -36 -14 -41 -12 -18 6 18 14 17
15 -18 12 -21 -2 -38 0 -38 4 0 4 7 8 15 8 8 0 15 7 15 16 0 9 9 18 20 21 11
3 20 9 20 13 0 5 -9 6 -21 3 -27 -8 -38 11 -32 56 4 31 1 38 -26 56 -28 18
-29 21 -15 42 13 21 11 27 -8 24 -5 0 -8 5 -8 13 0 8 -3 21 -6 30 -4 10 -1 16
10 16 12 0 14 5 6 25 -5 14 -7 25 -4 25 4 0 1 6 -5 14 -6 7 -9 22 -5 32 5 16
4 16 -5 4 -9 -13 -12 -12 -25 5 -8 11 -18 34 -22 50 l-7 30 -9 -27 c-8 -24
-12 -26 -30 -17 -14 8 -23 8 -31 0 -6 -6 -7 -11 -1 -11 11 0 38 -59 30 -67 -3
-3 -10 6 -15 20 -10 27 -31 45 -31 28 0 -6 5 -11 10 -11 6 0 10 -5 10 -11 0
-5 -4 -7 -10 -4 -6 3 -7 -1 -4 -9 3 -9 2 -16 -3 -16 -14 0 -10 -55 5 -56 6 -1
18 -2 26 -3 8 0 14 -12 14 -28 0 -15 5 -29 11 -31 16 -5 -16 -42 -36 -42 -12
0 -11 3 2 16 9 9 14 23 11 31 -3 8 -6 17 -6 19 0 2 -4 4 -9 4 -5 0 -12 -10
-14 -22 -4 -20 -4 -19 -6 5 -2 40 -21 33 -21 -9 0 -21 4 -33 10 -29 6 3 10 -1
10 -10 0 -9 -4 -13 -10 -10 -6 3 -10 -4 -10 -17 0 -18 2 -20 10 -8 10 16 10
18 15 -75 1 -21 7 -41 14 -43 6 -2 11 -11 11 -20 -1 -14 -4 -13 -19 5 -15 18
-20 20 -25 8 -3 -9 0 -15 9 -15 8 0 15 -5 15 -11 0 -11 -38 -3 -54 12 -22 20
-24 7 -6 -26 11 -19 16 -35 12 -35 -4 0 -8 -10 -9 -22 -9 -101 -9 -135 -1
-150 6 -13 5 -18 -7 -18 -8 0 -15 -7 -15 -15 0 -8 -4 -15 -10 -15 -13 0 -13
-67 0 -75 6 -4 5 -11 -2 -19 -11 -11 -15 -10 -25 3 -11 15 -13 14 -27 -4 -13
-18 -13 -20 7 -25 15 -4 18 -8 9 -14 -9 -5 -8 -11 4 -24 10 -9 12 -18 6 -20
-6 -2 -8 -14 -6 -28 3 -15 0 -24 -9 -24 -19 0 -18 -38 1 -43 14 -4 14 -5 2 -6
-11 -1 -16 -14 -18 -48 -2 -65 -12 -104 -23 -97 -5 3 -9 0 -9 -5 0 -6 6 -11
13 -11 8 0 7 -4 -3 -10 -13 -9 -13 -11 0 -20 8 -5 10 -10 5 -10 -6 0 -16 5
-23 12 -9 9 -15 9 -24 0 -8 -8 -5 -14 14 -21 15 -5 29 -16 33 -23 6 -10 5 -11
-6 0 -7 6 -22 11 -34 11 -16 -1 -17 -2 -2 -6 9 -2 17 -11 17 -20 0 -12 -3 -13
-15 -3 -16 14 -35 6 -35 -16 0 -8 -4 -14 -10 -14 -5 0 -10 6 -10 14 0 17 -42
29 -51 15 -3 -6 -10 -10 -15 -9 -5 1 -10 -3 -12 -9 -2 -6 2 -11 10 -11 7 -1
-2 -7 -19 -15 -23 -10 -31 -19 -27 -29 4 -11 0 -16 -10 -16 -9 0 -16 -6 -16
-14 0 -8 -3 -21 -6 -29 -4 -12 0 -14 15 -10 21 5 29 -11 11 -22 -6 -4 -8 -11
-5 -16 4 -5 1 -9 -4 -9 -6 0 -11 -7 -11 -16 0 -13 7 -15 30 -10 19 3 29 2 25
-4 -11 -17 -48 -11 -73 13 l-25 22 12 -23 c15 -29 4 -44 -14 -19 -16 23 -24
11 -31 -44 -5 -41 -23 -69 -43 -69 -6 0 -11 9 -11 20 0 11 -4 20 -9 20 -5 0
-16 6 -23 13 -29 26 -54 35 -71 26 -13 -8 -15 -6 -11 6 4 11 0 15 -16 15 -16
0 -20 4 -16 15 4 11 -2 15 -24 15 -23 0 -30 -5 -30 -20 0 -17 -4 -18 -25 -10
-21 8 -25 7 -25 -10 0 -11 -5 -20 -11 -20 -7 0 -9 10 -4 27 6 26 5 26 -12 12
-23 -20 -69 -39 -92 -39 -10 0 -28 -12 -42 -26 -13 -14 -31 -23 -41 -21 -9 3
-23 -2 -29 -10 -7 -8 -33 -26 -58 -40 -25 -15 -63 -44 -83 -65 -20 -21 -41
-38 -47 -38 -6 0 -26 -9 -46 -20 -19 -11 -35 -17 -35 -15 0 3 -10 -1 -22 -9
-13 -7 -48 -21 -78 -31 -30 -9 -62 -19 -70 -22 -8 -3 -37 -7 -63 -9 -27 -1
-54 -7 -60 -12 -7 -5 -36 -12 -66 -15 -72 -8 -141 -36 -141 -56 0 -8 -9 -24
-20 -36 -11 -11 -31 -36 -43 -55 l-23 -35 -92 -2 c-61 -1 -101 3 -118 12 -27
13 -54 11 -54 -6 0 -5 -7 -9 -16 -9 -8 0 -12 -5 -9 -10 3 -5 -1 -10 -9 -10 -8
0 -20 -8 -25 -18 -6 -10 -26 -30 -45 -43 -20 -13 -36 -30 -36 -36 0 -7 -7 -13
-15 -13 -8 0 -15 -4 -15 -10 0 -16 -44 -7 -58 13 -11 14 -11 20 3 33 9 9 13
24 10 35 -4 11 -2 19 4 19 6 0 12 -10 12 -22 1 -17 2 -19 6 -5 7 26 43 22 43
-5 0 -33 14 -11 16 25 3 56 4 59 16 55 7 -3 22 4 34 15 19 16 20 23 11 54 -10
32 -9 37 14 54 21 16 22 21 12 38 -7 12 -13 25 -13 31 0 17 18 11 23 -7 4 -15
5 -15 6 2 1 23 -27 51 -56 57 -15 3 -13 8 16 36 18 18 42 32 53 32 17 0 19 -5
14 -27 -5 -21 -4 -24 4 -13 5 8 10 23 10 33 0 9 6 17 14 17 8 0 16 5 18 12 3
7 11 -2 19 -20 7 -18 17 -32 21 -32 5 0 14 -15 22 -32 8 -18 15 -27 15 -20 1
7 14 12 31 12 20 0 30 5 30 15 0 8 5 15 10 15 24 0 3 -35 -23 -40 -26 -5 -27
-6 -14 -25 11 -14 18 -17 28 -9 8 6 33 10 56 9 33 -2 42 2 46 16 3 11 1 19 -4
19 -5 0 -7 11 -3 25 5 19 2 25 -10 25 -9 0 -16 5 -16 11 0 6 7 9 15 5 17 -6
21 9 5 19 -5 3 -10 15 -10 26 0 23 -13 25 -33 4 -13 -12 -19 -12 -53 5 -43 22
-54 19 -35 -12 10 -16 10 -22 1 -28 -9 -5 -9 -9 -1 -14 6 -4 9 -12 6 -17 -8
-12 -55 -12 -55 1 0 6 7 10 16 10 8 0 12 5 9 10 -4 6 -10 8 -15 5 -15 -10 -22
15 -8 32 11 14 10 15 -11 8 -20 -6 -22 -4 -17 13 6 18 2 21 -26 24 -21 2 -33
8 -33 18 -1 8 -5 32 -9 53 -9 39 19 187 35 187 4 0 13 15 19 34 20 63 100 127
100 81 0 -19 27 -26 43 -11 7 8 38 28 68 45 107 61 130 96 137 209 5 76 -7 95
-27 45 -23 -55 -50 -98 -51 -80 0 22 -3 22 -64 -7 -28 -13 -70 -26 -94 -30
-23 -3 -63 -19 -90 -35 -26 -16 -57 -32 -69 -36 -13 -3 -23 -12 -23 -19 0 -7
-9 -21 -20 -31 -11 -10 -20 -26 -20 -36 0 -10 -6 -24 -13 -31 -12 -12 -45
-101 -52 -138 -1 -8 -8 -14 -14 -13 -6 2 -11 -4 -11 -13 0 -8 -5 -12 -11 -9
-5 4 -19 -4 -31 -17 -11 -12 -25 -22 -30 -20 -6 1 -17 -3 -25 -10 -9 -7 -26
-11 -39 -10 -12 2 -36 -4 -53 -12 -45 -24 -117 -20 -176 9 -27 14 -56 25 -62
25 -7 0 -13 6 -13 13 0 8 -4 7 -10 -3 -8 -12 -12 -13 -19 -2 -4 8 -20 15 -35
15 -14 1 -26 5 -26 10 0 4 -11 7 -25 7 -22 0 -24 -3 -19 -30 4 -18 1 -36 -6
-45 -9 -10 -9 -15 -1 -15 6 0 11 -13 11 -28 0 -15 4 -32 8 -38 5 -5 17 -30 26
-56 10 -27 22 -48 27 -48 5 0 9 -7 9 -16 0 -18 55 -76 64 -67 3 4 6 2 6 -4 0
-6 10 -11 23 -11 59 -1 130 -20 122 -32 -3 -5 -1 -11 5 -15 5 -3 10 -1 10 4 0
6 5 11 10 11 6 0 10 -7 10 -15 0 -8 6 -16 13 -17 6 0 17 -2 22 -2 13 -2 52
-25 42 -26 -4 0 0 -12 10 -26 15 -24 15 -28 2 -38 -9 -6 -14 -16 -12 -22 2 -7
-2 -12 -9 -11 -51 2 -66 -4 -61 -22 4 -17 0 -19 -29 -17 -36 3 -78 -23 -91
-57 -3 -9 -11 -17 -17 -17 -6 0 -9 4 -5 9 3 5 -4 16 -16 25 -12 8 -18 19 -14
26 4 7 -1 9 -17 5 -17 -4 -32 3 -55 25 -18 16 -38 30 -46 30 -8 0 -20 7 -27
15 -15 18 -40 20 -41 3 0 -7 -5 -3 -11 10 -7 13 -20 22 -34 22 -13 0 -25 4
-28 9 -3 5 0 8 7 7 6 0 12 4 12 9 0 6 -5 10 -12 10 -6 0 -15 4 -19 8 -4 4 -15
7 -25 7 -9 0 -19 7 -23 15 -8 22 -25 18 -36 -7 -5 -13 -9 -17 -9 -10 -1 6 -9
12 -18 13 -11 0 -13 3 -5 6 17 7 5 23 -19 23 -11 0 -19 7 -19 18 0 12 -3 13
-8 5 -6 -10 -14 -9 -36 2 -16 8 -35 15 -42 15 -8 0 -14 5 -14 11 0 18 -64 69
-87 69 -13 0 -23 6 -23 14 0 8 -7 16 -15 20 -9 3 -15 0 -15 -9 0 -8 -4 -15
-10 -15 -5 0 -10 9 -10 21 0 11 -4 17 -10 14 -5 -3 -10 0 -10 7 0 10 -3 9 -11
-2 -8 -11 -12 -12 -16 -2 -7 19 -22 14 -17 -5 4 -14 -12 -26 -68 -52 -164 -76
-185 -88 -238 -141 -32 -32 -69 -82 -88 -121 -65 -133 -130 -181 -212 -159
-24 6 -55 8 -73 4 -18 -4 -34 -8 -37 -9 -3 0 -12 -5 -21 -10 -33 -20 -43 -58
-44 -161 -1 -117 -14 -155 -82 -247 -24 -31 -43 -59 -43 -62 0 -3 -13 -24 -30
-47 -16 -22 -30 -47 -30 -55 0 -7 -4 -13 -8 -13 -10 0 -37 -54 -92 -185 -23
-55 -47 -109 -53 -120 -6 -11 -18 -40 -27 -63 -10 -29 -25 -50 -44 -60 -17
-10 -42 -28 -58 -41 l-28 -24 0 -1389 0 -1388 945 0 c852 0 945 2 945 16 0 8
7 22 15 30 8 9 15 24 15 33 0 10 7 24 15 31 8 7 15 20 15 28 0 23 32 105 47
120 7 7 13 23 13 34 0 11 9 39 19 62 35 76 61 149 61 172 0 44 18 33 23 -14 3
-26 13 -108 22 -182 8 -74 18 -144 21 -155 l6 -20 -16 20 c-8 11 -16 28 -16
37 0 31 -20 30 -73 -4 -94 -60 -113 -96 -71 -139 32 -33 68 -37 134 -14 53 19
50 19 50 -4 0 -11 3 -26 6 -35 6 -15 248 -16 2649 -16 l2643 0 11 45 c6 25 15
45 20 45 5 0 6 20 4 44 -6 53 35 172 48 139 6 -13 8 -10 8 14 1 17 6 35 11 38
6 4 8 11 4 16 -3 6 4 19 17 30 17 14 25 16 35 8 8 -6 11 -15 8 -20 -3 -5 3 -9
13 -9 12 0 14 -3 6 -8 -8 -5 -9 -12 -2 -22 7 -13 10 -13 18 -1 11 17 45 7 71
-22 11 -11 20 -18 20 -15 0 4 11 -3 24 -15 19 -16 22 -26 15 -39 -6 -12 -6
-18 1 -18 5 0 10 7 10 15 0 8 5 15 10 15 6 0 10 -5 10 -12 0 -6 3 -9 6 -5 6 5
94 -39 104 -53 6 -8 46 -30 54 -30 16 0 3 41 -16 51 -13 7 -29 20 -36 31 -7
10 -19 18 -25 18 -7 0 -26 14 -44 30 -18 17 -37 30 -43 30 -6 0 -9 4 -6 9 3 5
-12 20 -33 34 -22 15 -38 33 -37 43 0 9 -5 18 -12 20 -7 1 -8 0 -2 -3 8 -3 7
-9 -1 -19 -16 -19 -27 -18 -25 3 0 11 -6 18 -17 18 -10 0 -21 6 -26 13 -4 7
-14 12 -22 10 -8 -2 -13 3 -12 10 2 6 -1 12 -6 12 -4 0 -6 11 -3 25 3 17 11
25 24 25 17 0 18 3 8 15 -10 11 -9 18 4 30 17 17 22 30 8 21 -11 -7 21 88 35
106 6 7 19 40 28 73 10 33 21 64 26 70 5 5 9 19 9 32 0 40 26 37 100 -11 39
-25 73 -46 76 -46 3 0 12 -7 20 -15 9 -8 20 -15 25 -15 5 0 9 812 9 2093 l0
2092 -57 23 c-151 58 -405 88 -484 57 -14 -5 -17 6 -22 69 -5 72 -18 103 -62
153 -117 132 -251 267 -300 303 -51 37 -72 67 -132 190 -30 61 -37 90 -42 160
-11 140 -56 195 -226 276 -79 37 -122 64 -151 95 -131 139 -222 178 -404 174
-81 -1 -135 -22 -178 -68 l-24 -25 -54 54 c-31 30 -59 54 -64 54 -5 0 -25 10
-46 22 -60 35 -132 41 -225 19 -50 -12 -64 -11 -140 7 -105 25 -170 31 -234
22z m-355 -682 c0 -13 -23 -5 -28 10 -2 7 2 10 12 6 9 -3 16 -11 16 -16z m4
-33 c-4 -8 -10 -12 -15 -9 -14 8 -10 24 6 24 9 0 12 -6 9 -15z m-54 -145 c0
-5 -2 -10 -4 -10 -3 0 -8 5 -11 10 -3 6 -1 10 4 10 6 0 11 -4 11 -10z m-10
-30 c0 -5 -2 -10 -4 -10 -3 0 -8 5 -11 10 -3 6 -1 10 4 10 6 0 11 -4 11 -10z
m167 -122 c-3 -8 -6 -5 -6 6 -1 11 2 17 5 13 3 -3 4 -12 1 -19z m818 -128 c3
-5 2 -10 -4 -10 -5 0 -13 5 -16 10 -3 6 -2 10 4 10 5 0 13 -4 16 -10z m-675
-34 c0 -3 -4 -8 -10 -11 -5 -3 -10 -1 -10 4 0 6 5 11 10 11 6 0 10 -2 10 -4z
m-43 -148 c-3 -7 -5 -2 -5 12 0 14 2 19 5 13 2 -7 2 -19 0 -25z m109 -6 c-6
-17 -10 -18 -30 -9 l-23 11 21 17 c24 20 41 10 32 -19z m-61 -22 c-3 -5 -10
-10 -16 -10 -5 0 -9 5 -9 10 0 6 7 10 16 10 8 0 12 -4 9 -10z m35 -15 c0 -8
-2 -15 -4 -15 -2 0 -6 7 -10 15 -3 8 -1 15 4 15 6 0 10 -7 10 -15z m420 -5 c0
-5 -5 -10 -11 -10 -5 0 -7 5 -4 10 3 6 8 10 11 10 2 0 4 -4 4 -10z m-553 -22
c-3 -8 -6 -5 -6 6 -1 11 2 17 5 13 3 -3 4 -12 1 -19z m155 0 c-7 -7 -12 -8
-12 -2 0 14 12 26 19 19 2 -3 -1 -11 -7 -17z m-57 -7 c-3 -6 -11 -11 -17 -11
-6 0 -6 6 2 15 14 17 26 13 15 -4z m-385 -41 c0 -5 -4 -10 -10 -10 -5 0 -10 5
-10 10 0 6 5 10 10 10 6 0 10 -4 10 -10z m410 6 c0 -3 -4 -8 -10 -11 -5 -3
-10 -1 -10 4 0 6 5 11 10 11 6 0 10 -2 10 -4z m129 -21 c3 -17 2 -17 -13 -3
-19 20 -21 31 -3 26 6 -3 14 -13 16 -23z m71 4 c0 -5 -4 -9 -10 -9 -5 0 -10 7
-10 16 0 8 5 12 10 9 6 -3 10 -10 10 -16z m-240 1 c0 -5 -8 -10 -17 -10 -15 0
-16 2 -3 10 19 12 20 12 20 0z m113 -60 c-13 -10 -23 -23 -23 -29 0 -6 -4 -11
-10 -11 -16 0 -12 15 10 40 11 13 20 28 20 34 0 6 5 5 13 -3 10 -10 8 -16 -10
-31z m-115 19 c-10 -5 -22 -17 -27 -27 -6 -9 -11 -12 -11 -5 0 6 7 19 16 27 8
9 21 16 27 16 7 0 4 -5 -5 -11z m-348 -45 c0 -8 -4 -12 -10 -9 -5 3 -10 10
-10 16 0 5 5 9 10 9 6 0 10 -7 10 -16z m970 -28 c0 -2 -7 -7 -16 -10 -8 -3
-12 -2 -9 4 6 10 25 14 25 6z m-293 -28 c-3 -8 -6 -5 -6 6 -1 11 2 17 5 13 3
-3 4 -12 1 -19z m247 -43 c-4 -8 -8 -15 -10 -15 -2 0 -4 7 -4 15 0 8 4 15 10
15 5 0 7 -7 4 -15z m-994 -20 c0 -8 -4 -15 -9 -15 -5 0 -11 7 -15 15 -3 9 0
15 9 15 8 0 15 -7 15 -15z m1677 -27 c-3 -8 -6 -5 -6 6 -1 11 2 17 5 13 3 -3
4 -12 1 -19z m-1666 -43 c5 4 6 -1 3 -9 -8 -20 -24 -11 -23 12 0 11 2 12 6 4
2 -6 9 -10 14 -7z m24 -114 c-3 -2 -5 3 -5 12 0 10 -2 17 -4 17 -2 0 -11 3
-20 6 -12 5 -16 0 -16 -20 0 -14 -4 -26 -10 -26 -5 0 -10 -7 -10 -15 0 -8 4
-15 9 -15 5 0 8 -20 7 -45 -1 -39 -3 -43 -13 -28 -12 16 -13 15 -15 -3 0 -10
0 -28 1 -39 4 -38 -9 -66 -28 -63 -10 2 -19 -1 -20 -7 -4 -20 10 -75 19 -75 6
0 10 -4 10 -10 0 -5 -9 -10 -20 -10 -14 0 -20 7 -20 24 0 34 -20 86 -33 86 -7
0 -5 5 3 10 12 7 12 12 2 22 -10 10 -15 10 -22 -2 -13 -20 -12 -40 1 -40 5 0
7 -5 4 -10 -4 -6 -16 -8 -27 -4 -14 4 -18 2 -14 -5 4 -6 19 -11 33 -11 15 0
23 -3 19 -7 -4 -4 -15 -8 -24 -8 -10 0 -16 -6 -14 -15 2 -8 4 -23 5 -32 1 -10
7 -18 14 -18 7 0 13 -2 13 -4 0 -2 3 -11 6 -20 4 -12 0 -16 -15 -16 -12 0 -21
5 -21 12 0 6 -3 8 -7 5 -8 -8 31 -47 47 -47 5 0 10 -13 10 -29 0 -29 22 -47
43 -34 7 4 8 0 2 -13 -4 -10 -8 -30 -8 -44 1 -24 1 -24 -14 -5 -15 19 -15 19
-9 -7 6 -27 -8 -41 -16 -16 -3 8 -12 8 -36 -3 -40 -17 -41 -35 -2 -44 26 -6
28 -8 15 -21 -17 -18 -19 -30 -5 -39 6 -3 10 -20 10 -36 0 -18 -4 -28 -10 -24
-5 3 -10 2 -10 -4 0 -5 4 -13 10 -16 6 -4 4 -15 -6 -30 -9 -13 -12 -30 -8 -36
5 -9 2 -10 -9 -6 -14 5 -17 0 -17 -28 0 -18 -5 -37 -11 -40 -6 -4 -8 -13 -5
-21 7 -18 -6 -25 -24 -14 -12 7 -18 2 -26 -23 -7 -21 -17 -31 -28 -29 -11 2
-16 -4 -16 -21 0 -16 -9 -28 -25 -35 -32 -15 -55 -15 -55 -1 0 5 -5 7 -11 3
-6 -3 -8 -17 -5 -30 5 -17 2 -24 -9 -24 -13 0 -19 -16 -16 -45 0 -6 -8 -16
-19 -23 -17 -10 -20 -10 -20 3 0 8 5 15 10 15 6 0 10 4 10 8 0 5 -7 9 -15 9
-9 0 -15 -10 -15 -23 0 -15 -11 -29 -30 -41 -16 -9 -30 -20 -30 -24 0 -10 -61
-30 -71 -23 -5 3 -9 1 -9 -3 0 -5 -13 -17 -30 -26 -18 -11 -30 -26 -30 -39 0
-15 -5 -19 -20 -15 -18 5 -26 -7 -21 -35 0 -4 -10 -10 -24 -14 -14 -3 -25 -11
-25 -17 0 -7 -4 -7 -12 1 -17 17 -38 15 -38 -3 0 -15 -36 -21 -42 -7 -5 12
-64 52 -77 52 -6 0 -8 -6 -5 -14 9 -24 -29 -29 -48 -7 -20 26 -28 26 -28 3 0
-23 -35 -57 -44 -44 -3 6 0 13 6 15 7 3 1 6 -14 6 -21 1 -29 7 -34 26 -3 14
-10 25 -14 25 -10 0 -22 -29 -16 -39 3 -4 7 -20 10 -35 4 -23 3 -26 -10 -16
-17 15 -19 -1 -2 -18 15 -15 3 -27 -35 -36 -25 -6 -28 -4 -22 13 10 33 -10 32
-49 -3 -20 -19 -38 -30 -41 -26 -3 5 -1 11 5 15 15 9 12 25 -4 25 -9 0 -16
-12 -18 -27 -2 -17 -8 -27 -17 -25 -7 1 -19 -2 -26 -8 -9 -8 -15 -8 -20 0 -3
5 -15 10 -26 10 -13 0 -19 7 -20 23 -1 17 -2 18 -6 4 -4 -16 -7 -15 -24 7 -10
13 -19 30 -19 36 0 16 69 82 79 76 4 -3 19 1 34 9 18 9 27 10 27 3 0 -6 11 1
24 15 13 14 27 23 30 20 3 -4 6 -1 6 6 0 6 6 11 13 10 6 -1 27 -1 46 0 25 1
32 5 28 16 -4 8 -2 17 3 20 5 3 7 12 4 19 -3 8 0 17 5 21 6 3 8 11 5 17 -4 6
1 8 15 3 12 -3 21 -3 20 2 -4 26 1 35 15 24 10 -8 16 -9 21 -1 3 5 18 10 33
11 15 0 21 3 15 6 -7 2 -13 9 -13 13 0 13 46 60 59 60 6 0 11 5 11 11 0 6 7
17 16 26 12 12 13 18 3 27 -8 8 -13 8 -16 -1 -3 -7 -10 -13 -16 -13 -6 0 -1
10 11 23 12 13 22 29 22 35 0 7 3 11 8 10 11 -4 52 35 52 49 0 6 -7 19 -16 28
-15 15 -15 16 7 12 13 -2 18 -2 12 0 -7 3 -13 8 -13 13 0 18 -40 32 -55 20
-11 -9 -18 -9 -28 2 -18 18 -29 48 -17 48 6 0 10 9 10 20 0 11 5 20 10 20 6 0
10 8 10 18 1 19 30 63 30 44 0 -7 5 -12 10 -12 6 0 10 7 10 15 0 8 -4 15 -10
15 -20 0 -10 19 12 22 12 2 23 8 25 15 2 6 -4 10 -14 9 -10 -2 -26 5 -36 15
-23 25 -43 24 -50 -1 -3 -11 -11 -20 -19 -19 -10 0 -10 2 0 6 6 2 12 9 12 15
0 6 -7 8 -15 4 -8 -3 -23 4 -34 15 -16 18 -22 19 -40 7 -12 -7 -21 -17 -21
-22 0 -11 -29 25 -30 37 0 4 11 7 25 7 14 0 25 6 25 13 0 7 10 18 21 26 20 12
21 11 15 -6 -5 -14 -2 -13 13 5 13 15 21 18 24 10 3 -7 6 2 6 20 1 17 6 32 12
32 20 0 56 35 52 50 -2 8 3 4 11 -10 8 -14 15 -19 16 -11 0 7 6 11 14 8 8 -3
20 1 26 9 9 10 9 14 1 14 -8 0 -8 4 1 14 7 8 15 10 16 5 6 -16 62 31 77 64 9
18 13 25 11 15 -7 -23 5 -30 19 -11 7 9 17 13 24 9 18 -12 -6 -36 -35 -36 -13
0 -24 -5 -24 -11 0 -11 15 -10 100 7 32 6 34 5 21 -10 -12 -14 -9 -16 29 -16
34 0 41 -3 36 -16 -5 -12 -1 -14 17 -9 12 4 26 11 31 15 12 12 45 -11 39 -27
-3 -7 0 -13 6 -13 6 0 11 -4 11 -10 0 -21 -30 -9 -36 15 -5 21 -9 23 -21 14
-12 -11 -10 -16 13 -36 29 -25 44 -29 44 -13 0 6 5 10 10 10 6 0 10 -7 10 -15
0 -8 5 -15 10 -15 16 0 12 40 -5 46 -8 4 -15 11 -15 16 0 6 6 6 14 -1 11 -9
15 -9 19 1 4 8 6 7 6 -4 1 -23 10 -22 39 1 25 22 28 39 8 47 -8 3 -12 12 -9
20 3 8 0 14 -6 14 -6 0 -11 -4 -11 -10 0 -5 -5 -10 -11 -10 -6 0 -9 7 -5 15 3
9 0 15 -9 15 -8 0 -15 5 -15 10 0 6 6 9 13 8 6 -2 11 5 9 15 -3 18 13 24 23 7
3 -5 12 -7 20 -4 16 6 48 -20 38 -30 -4 -3 1 -6 10 -6 8 0 18 -8 20 -17 3 -13
5 -12 6 5 0 13 6 20 11 17 16 -10 12 -43 -6 -53 -29 -16 -6 -30 46 -27 27 1
50 -2 50 -6 0 -5 -9 -9 -21 -9 -11 0 -17 -4 -14 -10 4 -6 14 -10 23 -9 32 3
41 -1 36 -16 -4 -10 1 -15 15 -16 12 -1 27 -2 34 -3 6 -1 16 -5 20 -11 5 -6 6
-4 3 5 -3 8 -9 23 -12 33 -4 11 -13 16 -24 12 -19 -6 -35 18 -31 47 1 9 -3 19
-9 23 -6 3 -8 11 -5 16 3 5 -1 6 -10 3 -13 -6 -16 -1 -13 22 2 23 7 29 26 27
19 -2 21 0 10 16 -9 15 -9 23 0 34 7 8 9 22 6 31 -4 11 0 22 11 30 10 7 15 18
11 25 -4 6 0 14 9 18 10 3 21 0 26 -8 7 -11 9 -10 9 4 0 10 6 20 13 23 15 5
11 64 -4 64 -14 0 -10 50 4 51 10 0 10 2 0 6 -18 7 -16 23 2 23 8 0 15 -4 15
-10 0 -5 5 -10 10 -10 6 0 10 9 10 19 0 25 22 32 38 12 10 -12 15 -13 18 -3 3
6 14 12 25 12 10 0 19 6 20 13 1 6 5 -8 10 -32 5 -25 6 -47 4 -50z m-28 7 c-3
-8 -6 -5 -6 6 -1 11 2 17 5 13 3 -3 4 -12 1 -19z m-187 -42 c0 -27 -15 -43
-24 -27 -4 5 -2 12 3 16 6 3 8 12 4 20 -3 8 0 15 6 15 6 0 11 -11 11 -24z
m210 -16 c0 -5 -4 -10 -10 -10 -5 0 -10 5 -10 10 0 6 5 10 10 10 6 0 10 -4 10
-10z m-163 -37 c-3 -10 -5 -4 -5 12 0 17 2 24 5 18 2 -7 2 -21 0 -30z m-130
-70 c19 8 26 8 33 -2 6 -11 9 -11 13 0 4 10 6 9 6 -3 1 -10 -3 -18 -9 -18 -18
0 -11 -20 8 -21 15 -1 15 -2 -1 -6 -13 -3 -17 -11 -14 -24 3 -12 0 -19 -9 -19
-8 0 -14 7 -14 15 0 8 -6 15 -13 15 -19 0 -67 24 -67 33 0 4 9 3 19 -3 11 -5
24 -10 30 -10 19 0 12 18 -9 25 -11 3 -20 11 -20 18 0 8 3 8 11 0 9 -9 18 -9
36 0z m-247 -33 c0 -5 -4 -10 -10 -10 -5 0 -10 5 -10 10 0 6 5 10 10 10 6 0
10 -4 10 -10z m56 -25 c25 -19 14 -19 -22 0 -16 8 -22 15 -13 15 8 0 24 -7 35
-15z m105 -7 c-4 -12 -14 -24 -21 -26 -9 -3 -11 1 -7 12 4 10 7 22 7 27 0 5 7
9 15 9 11 0 12 -6 6 -22z m-141 -19 c0 -6 -9 -8 -22 -4 -17 6 -20 4 -15 -9 4
-10 3 -15 -2 -11 -5 3 -11 2 -14 -2 -2 -5 -3 -3 -1 3 1 6 -3 17 -9 23 -8 8 -1
11 26 11 20 0 37 -5 37 -11z m436 -6 c-4 -9 -1 -20 6 -25 9 -5 10 -8 1 -8 -6
0 -15 5 -18 10 -7 12 0 40 11 40 3 0 3 -8 0 -17z m-206 -15 c0 -19 -2 -20 -10
-8 -13 19 -13 30 0 30 6 0 10 -10 10 -22z m-425 2 c-3 -5 -11 -10 -16 -10 -6
0 -7 5 -4 10 3 6 11 10 16 10 6 0 7 -4 4 -10z m562 -42 c-3 -8 -6 -5 -6 6 -1
11 2 17 5 13 3 -3 4 -12 1 -19z m-387 -24 c24 -23 -10 -17 -40 7 l-25 20 25
-6 c14 -4 32 -13 40 -21z m57 -40 c-3 -4 -14 -3 -24 0 -15 6 -15 8 -3 16 16
10 39 -4 27 -16z m-689 -222 c3 -20 0 -22 -24 -19 -15 2 -30 9 -32 16 -3 9 3
11 19 7 13 -3 18 -3 12 0 -19 9 -15 26 5 22 9 -2 18 -13 20 -26z m82 8 c0 -5
-2 -10 -4 -10 -3 0 -8 5 -11 10 -3 6 -1 10 4 10 6 0 11 -4 11 -10z m-145 -30
c4 -6 4 -18 1 -27 -5 -12 -9 -13 -21 -3 -20 17 -20 -3 0 -34 14 -22 14 -24 -1
-30 -10 -4 -20 -3 -23 2 -10 15 -39 21 -38 9 1 -40 -4 -67 -13 -67 -5 0 -10 8
-11 18 0 14 -2 14 -8 -3 -11 -26 -4 -37 19 -30 21 7 93 -26 72 -33 -7 -2 -22
4 -33 14 -19 17 -21 17 -49 1 -22 -13 -30 -14 -34 -5 -3 7 -3 2 1 -12 4 -14 8
-36 9 -50 1 -14 3 -28 3 -31 1 -4 9 -6 18 -5 10 0 19 -8 21 -19 2 -11 8 -22
12 -25 4 -3 10 -16 14 -30 3 -14 3 -19 0 -12 -9 19 -26 14 -20 -6 4 -12 -3
-21 -24 -31 -17 -7 -37 -11 -44 -8 -7 3 -18 1 -23 -4 -6 -6 -18 -1 -31 11
l-22 21 0 -21 c0 -20 -19 -29 -21 -10 -1 6 -2 15 -3 20 -2 17 -28 30 -60 30
-21 0 -27 -4 -22 -15 3 -8 1 -15 -5 -15 -6 0 -8 -9 -4 -19 4 -14 0 -23 -16
-31 -15 -9 -20 -19 -16 -36 4 -24 -6 -33 -18 -14 -3 5 -12 7 -20 3 -8 -3 -15
0 -15 6 0 6 -6 11 -12 11 -7 0 -24 9 -38 20 l-25 19 25 10 c15 6 19 10 9 10
-9 1 -22 -6 -29 -14 -15 -18 -31 -20 -29 -2 3 28 -2 38 -18 36 -26 -4 -63 19
-63 39 0 10 -5 23 -12 30 -7 7 -10 12 -7 13 46 9 113 8 125 -2 13 -10 17 -10
24 0 4 8 13 10 20 6 8 -5 18 -1 25 9 11 14 13 15 19 1 3 -9 0 -15 -9 -15 -8 0
-15 -7 -15 -15 0 -9 6 -12 16 -8 14 5 16 1 12 -20 -3 -15 -2 -27 2 -27 14 0
18 13 10 34 -9 24 -1 42 43 98 15 19 27 43 27 53 0 12 6 16 19 12 22 -6 51 9
51 27 0 8 13 19 30 26 16 7 32 21 36 32 4 15 13 19 34 16 16 -2 27 -1 25 2 -6
10 25 50 39 50 7 0 23 11 36 25 25 27 45 32 55 15z m-1059 -130 c-1 -31 -11
-40 -19 -17 -4 11 9 47 17 47 2 0 3 -13 2 -30z m995 -117 c13 -15 12 -16 -8
-11 -13 4 -23 2 -23 -5 0 -6 -2 -8 -5 -5 -7 7 5 38 15 38 4 0 14 -8 21 -17z
m47 -61 c2 -7 -2 -10 -12 -6 -9 3 -16 11 -16 16 0 13 23 5 28 -10z m-258 -86
c0 -3 -4 -8 -10 -11 -5 -3 -10 -1 -10 4 0 6 5 11 10 11 6 0 10 -2 10 -4z m-26
-48 c-8 -29 -10 -31 -23 -24 -7 5 -7 13 2 26 16 27 30 25 21 -2z m26 -18 c0
-5 -4 -10 -10 -10 -5 0 -10 5 -10 10 0 6 5 10 10 10 6 0 10 -4 10 -10z m-75
-10 c3 -5 1 -10 -4 -10 -6 0 -11 5 -11 10 0 6 2 10 4 10 3 0 8 -4 11 -10z
m1075 -100 c0 -5 -4 -10 -10 -10 -5 0 -10 5 -10 10 0 6 5 10 10 10 6 0 10 -4
10 -10z m-455 -190 c3 -5 1 -10 -4 -10 -6 0 -11 5 -11 10 0 6 2 10 4 10 3 0 8
-4 11 -10z m-43 -42 c-7 -7 -12 -8 -12 -2 0 6 3 14 7 17 3 4 9 5 12 2 2 -3 -1
-11 -7 -17z m1622 -2179 c-2 -4 14 -9 37 -13 22 -3 42 -12 45 -19 3 -8 20 -11
48 -9 67 6 122 -29 161 -100 11 -19 20 -25 35 -21 11 3 18 9 15 13 -3 5 28 6
67 4 40 -2 85 -5 100 -6 15 0 25 -4 23 -9 -3 -4 8 -10 24 -14 64 -14 129 -119
118 -190 -8 -49 1 -44 14 9 7 29 19 48 35 56 13 8 24 21 24 31 0 12 5 16 15
13 8 -4 15 -2 15 4 0 18 116 70 190 85 167 34 258 33 302 -3 20 -16 21 -21 10
-57 -6 -21 -23 -50 -37 -63 -13 -12 -22 -27 -19 -32 7 -11 -68 -120 -115 -168
-45 -46 -109 -80 -157 -83 -36 -3 -223 41 -262 62 -12 6 -22 22 -23 34 0 15
-8 6 -26 -31 -15 -30 -36 -58 -47 -62 -12 -5 -51 -21 -89 -36 -37 -15 -70 -25
-73 -22 -3 3 -1 64 4 134 11 141 5 169 -37 190 -46 23 -73 -11 -86 -106 -4
-30 -9 -64 -11 -75 -3 -11 -7 -56 -11 -100 -3 -44 -8 -82 -10 -85 -6 -6 -115
-2 -167 6 l-39 6 6 57 c4 31 18 115 32 186 26 129 27 184 4 211 -13 16 -33 19
-24 4 3 -6 -1 -7 -9 -4 -21 8 -33 -24 -62 -161 -36 -177 -54 -235 -73 -235 -9
0 -42 12 -74 27 l-59 28 5 45 c3 25 9 56 13 70 l8 25 -34 -29 c-19 -15 -45
-33 -59 -38 -39 -16 -329 -29 -374 -17 -69 18 -92 91 -61 196 6 20 3 22 -32
22 -79 -2 -77 -4 -71 46 2 26 6 48 9 50 4 4 105 33 138 39 24 5 30 -3 20 -29
-13 -34 2 -31 23 4 9 16 38 47 63 68 25 21 51 43 57 48 35 30 74 40 151 39
101 0 106 -2 145 -47 18 -20 38 -34 44 -30 5 3 7 1 4 -5 -4 -5 -4 -18 -1 -27
11 -28 24 4 24 62 0 32 5 53 13 56 19 6 105 3 101 -4z m-1155 -53 c51 -36 80
-75 102 -139 l16 -48 7 70 c4 39 11 73 17 76 5 4 25 1 43 -5 32 -10 34 -14 40
-68 19 -193 28 -313 24 -318 -3 -2 -31 2 -64 11 -32 8 -66 15 -76 15 -9 0 -19
4 -22 9 -5 8 7 97 20 146 5 16 2 15 -12 -5 -35 -50 -70 -82 -115 -105 -78 -40
-177 -67 -249 -69 l-68 -1 -12 -103 c-15 -118 -17 -121 -113 -145 -52 -14 -59
-14 -64 -1 -6 16 2 152 17 294 5 47 14 138 21 202 10 102 14 119 33 131 29 19
164 60 174 53 5 -3 27 4 48 15 31 16 54 20 115 17 65 -3 82 -7 118 -32z m-504
-106 c-2 -31 -15 -37 -15 -7 0 15 4 27 8 27 5 0 8 -9 7 -20z m-561 -10 c12
-12 -3 -41 -53 -100 l-39 -44 -43 14 c-55 19 -183 20 -201 2 -10 -10 -7 -17
17 -36 35 -28 228 -91 246 -81 7 5 10 4 6 -2 -4 -6 5 -15 19 -22 14 -6 31 -25
38 -42 13 -32 13 -32 21 37 5 38 9 74 10 79 1 6 3 15 3 22 1 7 17 19 35 27 47
21 160 57 165 52 2 -3 -2 -44 -8 -93 -24 -181 -24 -185 -6 -198 24 -18 63 -7
101 30 26 24 36 28 40 17 10 -26 5 -110 -7 -119 -34 -25 -130 -56 -189 -61
-94 -7 -144 22 -158 91 l-7 32 -18 -33 c-30 -57 -111 -89 -171 -66 -20 8 -100
124 -85 124 5 0 10 -5 10 -11 0 -6 10 -9 23 -7 37 5 27 39 -23 72 -25 17 -63
49 -85 72 -48 50 -138 197 -139 227 -1 20 3 22 54 18 30 -3 66 -4 80 -4 46 1
235 16 239 19 8 7 116 -7 125 -16z"/>
<path d="M5095 5210 c-3 -5 -1 -10 4 -10 6 0 11 5 11 10 0 6 -2 10 -4 10 -3 0
-8 -4 -11 -10z"/>
<path d="M4526 4692 c-2 -4 6 -9 20 -10 13 -1 24 3 24 8 0 12 -37 14 -44 2z"/>
<path d="M4535 4650 c4 -6 11 -8 16 -5 14 9 11 15 -7 15 -8 0 -12 -5 -9 -10z"/>
<path d="M4495 4540 c3 -5 8 -10 11 -10 2 0 4 5 4 10 0 6 -5 10 -11 10 -5 0
-7 -4 -4 -10z"/>
<path d="M4191 4406 c2 -2 15 -9 29 -16 23 -12 24 -12 11 3 -7 10 -20 17 -29
17 -8 0 -13 -2 -11 -4z"/>
<path d="M4241 4358 c-1 -22 9 -48 20 -48 5 0 9 7 9 15 0 8 -4 15 -9 15 -5 0
-12 8 -14 18 -4 15 -5 15 -6 0z"/>
<path d="M3794 4322 c5 -8 0 -12 -13 -12 -15 0 -19 -4 -14 -17 4 -11 8 -12 11
-5 2 7 10 12 18 12 17 0 19 16 2 26 -7 4 -8 3 -4 -4z"/>
<path d="M4240 4293 c0 -6 -10 -13 -22 -16 -18 -5 -19 -8 -8 -21 7 -9 19 -16
27 -16 12 0 13 3 4 13 -8 10 -7 17 1 25 6 6 9 15 5 19 -4 3 -7 2 -7 -4z"/>
<path d="M4326 4248 c-7 -10 -16 -15 -21 -10 -4 4 -6 0 -3 -8 5 -16 41 -15 46
1 2 5 10 16 18 24 12 12 11 14 -7 12 -11 -1 -27 -9 -33 -19z"/>
<path d="M4174 4241 c4 -5 0 -11 -6 -14 -7 -2 -10 -8 -6 -12 4 -4 16 0 28 8
18 13 19 15 5 21 -23 8 -27 8 -21 -3z"/>
<path d="M4385 4220 c-4 -6 5 -10 20 -10 15 0 24 4 20 10 -3 6 -12 10 -20 10
-8 0 -17 -4 -20 -10z"/>
<path d="M4075 4210 c-3 -5 -1 -10 4 -10 6 0 11 5 11 10 0 6 -2 10 -4 10 -3 0
-8 -4 -11 -10z"/>
<path d="M4500 4210 c0 -5 5 -10 10 -10 6 0 10 5 10 10 0 6 -4 10 -10 10 -5 0
-10 -4 -10 -10z"/>
<path d="M3704 4185 c-16 -12 -16 -14 -3 -15 9 0 22 7 29 15 16 19 0 19 -26 0z"/>
<path d="M4165 4180 c3 -5 11 -10 16 -10 6 0 7 5 4 10 -3 6 -11 10 -16 10 -6
0 -7 -4 -4 -10z"/>
<path d="M4128 4163 c7 -3 16 -2 19 1 4 3 -2 6 -13 5 -11 0 -14 -3 -6 -6z"/>
<path d="M3672 4146 c7 -7 19 -11 25 -9 22 9 14 23 -12 23 -21 0 -24 -2 -13
-14z"/>
<path d="M3708 4113 c6 -2 18 -2 25 0 6 3 1 5 -13 5 -14 0 -19 -2 -12 -5z"/>
<path d="M4030 3960 c0 -5 7 -7 15 -4 8 4 15 8 15 10 0 2 -7 4 -15 4 -8 0 -15
-4 -15 -10z"/>
<path d="M4070 3960 c0 -5 5 -10 10 -10 6 0 10 5 10 10 0 6 -4 10 -10 10 -5 0
-10 -4 -10 -10z"/>
<path d="M3968 3901 c-10 -10 -18 -24 -18 -32 1 -10 4 -10 14 4 7 9 16 17 20
17 4 0 14 7 22 15 14 13 13 15 -3 14 -10 0 -26 -8 -35 -18z"/>
<path d="M3920 3840 c-12 -8 -11 -10 7 -10 19 0 22 -4 17 -29 -4 -16 -1 -32 5
-35 11 -7 12 -7 16 34 3 24 -10 50 -24 50 -3 0 -13 -5 -21 -10z"/>
<path d="M4177 3843 c-10 -9 -9 -23 2 -23 5 0 11 7 15 15 5 15 -5 20 -17 8z"/>
<path d="M3900 3810 c0 -5 7 -10 16 -10 8 0 12 5 9 10 -3 6 -10 10 -16 10 -5
0 -9 -4 -9 -10z"/>
<path d="M3687 3683 c-10 -10 -8 -23 4 -23 5 0 8 4 4 9 -3 5 3 12 12 14 14 4
15 5 2 6 -9 0 -19 -2 -22 -6z"/>
<path d="M3605 3520 c-3 -5 1 -10 9 -10 9 0 16 5 16 10 0 6 -4 10 -9 10 -6 0
-13 -4 -16 -10z"/>
<path d="M4360 4515 c0 -9 5 -15 11 -13 6 2 11 8 11 13 0 5 -5 11 -11 13 -6 2
-11 -4 -11 -13z"/>
<path d="M3037 3774 c-7 -8 3 -34 13 -34 9 0 8 26 -1 35 -3 3 -8 2 -12 -1z"/>
<path d="M3040 3720 c0 -6 7 -10 15 -10 8 0 15 2 15 4 0 2 -7 6 -15 10 -8 3
-15 1 -15 -4z"/>
<path d="M3032 3655 c0 -16 2 -22 5 -12 2 9 2 23 0 30 -3 6 -5 -1 -5 -18z"/>
<path d="M2990 3660 c0 -5 5 -10 10 -10 6 0 10 5 10 10 0 6 -4 10 -10 10 -5 0
-10 -4 -10 -10z"/>
<path d="M2975 3620 c-3 -5 1 -10 9 -10 9 0 16 5 16 10 0 6 -4 10 -9 10 -6 0
-13 -4 -16 -10z"/>
<path d="M4840 963 c-14 -9 -27 -18 -30 -20 -2 -2 2 -9 10 -14 13 -9 12 -10
-2 -5 -16 5 -35 -10 -25 -20 7 -8 57 18 57 30 0 6 4 6 9 -2 6 -10 13 -8 32 7
15 13 19 20 10 21 -8 0 -11 3 -7 7 4 4 16 -3 26 -17 11 -14 20 -20 20 -13 0
19 -30 43 -53 43 -13 0 -34 -8 -47 -17z"/>
<path d="M6240 818 c-56 -38 -49 -47 22 -31 103 23 108 25 108 35 0 6 -7 7
-16 4 -8 -3 -12 -2 -9 4 13 20 -72 10 -105 -12z"/>
<path d="M4815 807 c-39 -9 -50 -16 -50 -32 0 -11 5 -19 12 -18 7 2 10 -3 7
-11 -4 -11 6 -13 44 -11 54 3 92 19 92 38 0 8 -3 8 -9 -1 -7 -11 -9 -11 -14 1
-4 12 0 14 19 11 13 -2 24 0 24 6 0 6 5 8 10 5 6 -3 10 -1 10 4 0 6 5 11 11
11 5 0 7 -5 3 -12 -5 -7 -2 -9 8 -5 9 3 21 0 28 -6 10 -9 11 -9 6 1 -4 6 -3
12 3 12 5 0 11 -3 13 -7 2 -5 18 -16 36 -26 32 -18 52 -16 52 6 0 9 -2 9 -8 1
-9 -15 -52 0 -52 18 0 9 3 9 10 -2 5 -8 12 -11 16 -7 18 18 -22 29 -118 33
-61 2 -123 -2 -153 -9z"/>
<path d="M6410 750 c-30 -17 -61 -30 -68 -30 -7 0 -10 -5 -6 -12 4 -7 3 -8 -4
-4 -14 9 -164 -32 -174 -47 -9 -15 22 -36 52 -37 39 0 70 11 63 23 -4 6 -1 7
6 3 7 -5 25 6 46 27 19 20 50 41 70 48 35 13 98 58 80 58 -5 0 -35 -13 -65
-29z"/>
<path d="M3901 938 c-52 -14 -89 -47 -107 -95 -17 -42 -16 -45 3 -71 17 -23
27 -27 62 -24 78 4 161 65 161 118 0 27 -36 70 -65 77 -11 3 -35 1 -54 -5z"/>
<path d="M4641 6454 c0 -11 3 -14 6 -6 3 7 2 16 -1 19 -3 4 -6 -2 -5 -13z"/>
<path d="M1810 6380 c0 -5 5 -10 10 -10 6 0 10 5 10 10 0 6 -4 10 -10 10 -5 0
-10 -4 -10 -10z"/>
<path d="M4674 6360 c4 -14 8 -32 10 -40 2 -8 7 -14 12 -12 13 4 5 45 -13 62
-14 13 -15 12 -9 -10z"/>
<path d="M4650 6303 c0 -28 10 -53 21 -53 11 0 1 50 -12 65 -5 5 -9 0 -9 -12z"/>
<path d="M2175 6300 c3 -5 8 -10 11 -10 2 0 4 5 4 10 0 6 -5 10 -11 10 -5 0
-7 -4 -4 -10z"/>
<path d="M4696 6235 c4 -8 8 -15 10 -15 2 0 4 7 4 15 0 8 -4 15 -10 15 -5 0
-7 -7 -4 -15z"/>
<path d="M880 6208 c8 -28 8 -31 -4 -15 -14 18 -46 24 -46 8 0 -10 -19 -9 -36
2 -7 4 -14 0 -17 -8 -5 -11 -13 -12 -39 -4 -18 5 -34 9 -35 9 -1 0 -3 -10 -5
-22 -3 -20 -9 -23 -43 -23 -22 1 -43 -4 -47 -10 -5 -6 -8 -4 -8 4 0 11 -4 10
-13 -4 -10 -13 -21 -16 -41 -11 -23 6 -32 1 -62 -33 -20 -22 -42 -37 -48 -35
-7 3 -32 -14 -55 -36 -24 -24 -49 -40 -59 -38 -9 2 -29 -9 -45 -24 -15 -15
-35 -28 -45 -28 -10 0 -25 -9 -35 -20 -9 -11 -28 -20 -42 -20 -15 0 -24 -4
-21 -8 3 -5 -19 -8 -49 -8 -30 1 -55 -3 -55 -8 0 -4 -7 -6 -15 -2 -13 5 -15
-14 -15 -128 0 -131 0 -133 25 -146 14 -7 25 -17 25 -22 0 -4 6 -8 14 -8 8 0
36 -11 62 -24 26 -13 54 -22 61 -19 8 3 13 0 11 -8 -2 -8 2 -13 9 -12 6 2 15
-6 18 -17 10 -31 25 -13 18 20 -3 20 -1 30 6 30 7 0 9 5 6 11 -4 6 -13 8 -21
5 -24 -9 -24 10 0 33 13 12 34 23 47 24 13 0 27 6 31 12 5 6 8 5 8 -3 0 -10 5
-10 21 2 12 8 28 12 35 9 10 -4 12 0 7 13 -5 13 -3 16 10 11 8 -3 17 -1 20 6
2 7 12 12 23 12 11 0 18 6 16 14 -3 12 0 12 13 1 13 -11 15 -10 9 6 -4 10 -4
16 1 12 4 -4 17 -1 29 7 26 19 42 19 27 1 -9 -10 -9 -16 -1 -21 6 -4 14 -4 17
-1 3 3 12 1 20 -5 9 -9 13 -8 13 0 0 6 -4 11 -10 11 -20 0 -9 21 16 30 17 7
32 7 44 0 13 -7 21 -7 25 0 4 6 11 8 16 4 5 -3 7 -9 4 -14 -3 -4 4 -6 15 -3
16 4 20 0 20 -17 0 -18 -4 -21 -21 -17 -15 4 -19 2 -15 -8 3 -10 0 -12 -11 -8
-11 4 -14 2 -9 -5 5 -8 2 -10 -8 -6 -9 3 -13 10 -10 15 3 5 1 9 -5 9 -5 0 -13
-4 -16 -10 -3 -5 -1 -10 4 -10 18 0 13 -17 -6 -24 -10 -3 -25 -10 -33 -15 -8
-5 -33 -13 -55 -18 -25 -5 -39 -14 -37 -22 2 -8 -3 -11 -13 -8 -8 4 -15 2 -15
-3 0 -6 7 -10 15 -10 8 0 15 -5 15 -11 0 -12 -43 -1 -48 12 -5 13 -22 0 -18
-14 1 -7 1 -9 -1 -4 -8 13 -23 8 -23 -8 0 -8 -4 -15 -10 -15 -5 0 -6 8 -3 18
6 15 5 15 -10 4 -9 -8 -20 -11 -25 -8 -6 3 -16 -2 -23 -11 -10 -12 -10 -14 -1
-9 8 5 12 0 12 -17 0 -22 -4 -24 -38 -22 -31 2 -38 -1 -38 -17 0 -13 6 -18 18
-15 11 3 20 -2 24 -16 4 -12 12 -26 18 -32 47 -44 86 -67 144 -84 53 -16 77
-30 112 -66 24 -25 49 -45 55 -45 7 0 18 -11 25 -25 12 -22 35 -31 64 -26 5 1
6 -5 3 -12 -4 -11 4 -14 34 -13 22 1 45 -2 52 -7 8 -6 7 -7 -5 -3 -13 4 -18 0
-18 -15 0 -12 4 -17 11 -13 6 3 15 0 20 -7 7 -12 9 -12 9 0 0 11 3 11 15 1 13
-11 15 -8 15 14 0 34 25 64 34 41 8 -23 26 -18 26 8 0 18 2 19 10 7 8 -12 12
-12 18 -2 12 18 36 11 44 -13 4 -15 6 -11 7 15 1 24 4 31 10 21 6 -9 10 -10
16 -2 4 7 2 18 -4 25 -9 10 -8 15 4 20 8 3 15 1 15 -4 0 -6 5 -10 10 -10 6 0
10 13 10 30 0 21 4 28 14 24 8 -3 17 -1 21 5 3 6 16 11 28 12 21 0 21 1 2 10
-15 7 -11 8 16 4 36 -5 37 -5 48 40 6 25 14 45 17 45 3 0 4 -7 0 -15 -3 -9 0
-15 8 -15 8 0 16 9 19 20 4 15 0 20 -14 20 -18 0 -18 1 1 20 12 12 26 17 37
13 16 -6 16 -5 4 10 -7 9 -20 17 -27 17 -8 0 -14 5 -14 11 0 6 6 9 13 6 9 -3
20 12 32 46 10 29 22 58 28 65 9 11 4 14 -19 11 -12 -1 -22 23 -17 42 5 18 15
23 41 20 6 -1 12 3 12 8 0 20 -52 7 -67 -16 -9 -13 -22 -23 -30 -23 -8 0 -11
-5 -8 -10 3 -6 -1 -13 -9 -16 -9 -3 -14 -10 -11 -14 3 -5 -13 -27 -35 -49 -22
-22 -40 -44 -40 -50 0 -5 -6 -14 -14 -18 -7 -4 -19 -19 -26 -32 -7 -13 -15
-20 -19 -15 -3 6 -15 9 -26 9 -11 0 -25 4 -32 8 -7 5 -17 6 -22 2 -7 -3 -8 0
-5 10 4 8 -1 26 -10 40 -10 15 -12 26 -6 30 6 3 10 2 10 -2 0 -5 7 -18 16 -29
15 -18 15 -18 11 10 -4 21 2 35 24 56 16 15 26 30 22 33 -3 4 2 9 11 13 9 3
14 10 11 14 -3 5 8 14 25 22 16 7 30 16 30 19 0 3 29 21 65 38 65 32 98 34
108 7 3 -8 19 -17 36 -21 26 -6 31 -11 31 -36 0 -18 6 -32 16 -36 18 -7 36 15
29 35 -6 17 9 15 36 -7 l24 -18 1 28 c1 16 -3 29 -7 29 -4 0 -11 17 -14 38 -7
42 -35 114 -49 123 -4 4 -6 11 -3 16 4 6 -5 20 -18 31 -14 12 -25 29 -25 37 0
8 -4 15 -9 15 -16 0 -62 54 -57 67 3 8 2 12 -3 9 -5 -3 -12 10 -15 29 -4 19
-11 35 -16 35 -5 0 -7 7 -3 16 4 12 0 14 -20 9 -20 -5 -28 -2 -37 14 -6 12
-15 19 -20 16 -15 -9 -40 7 -40 25 0 14 -7 18 -27 17 -20 -1 -28 3 -28 15 0
10 -6 23 -13 30 -9 9 -12 8 -12 -7 0 -17 -1 -18 -12 -2 -8 11 -29 18 -56 19
-24 1 -45 5 -48 10 -3 4 -10 6 -15 2 -5 -3 -16 0 -24 6 -12 10 -13 7 -5 -22z
m130 -22 c0 -3 -4 -8 -10 -11 -5 -3 -10 -1 -10 4 0 6 5 11 10 11 6 0 10 -2 10
-4z m310 -496 c0 -5 -4 -10 -10 -10 -5 0 -10 5 -10 10 0 6 5 10 10 10 6 0 10
-4 10 -10z m120 -50 c0 -5 -2 -10 -4 -10 -3 0 -8 5 -11 10 -3 6 -1 10 4 10 6
0 11 -4 11 -10z m-537 -154 c25 -1 41 -16 16 -16 -6 0 -9 -6 -6 -12 2 -7 -12
-24 -32 -38 -41 -28 -53 -32 -101 -34 -35 -1 -35 -1 -32 39 5 61 26 78 82 69
25 -4 57 -8 73 -8z m82 -114 c0 -18 -20 -15 -23 4 -3 10 1 15 10 12 7 -3 13
-10 13 -16z m-32 -21 c4 -17 2 -18 -14 -8 -13 8 -15 13 -6 19 7 4 13 8 13 8 1
0 4 -9 7 -19z m217 -36 c0 -8 -4 -15 -10 -15 -5 0 -7 7 -4 15 4 8 8 15 10 15
2 0 4 -7 4 -15z m-183 -137 c-3 -8 -6 -5 -6 6 -1 11 2 17 5 13 3 -3 4 -12 1
-19z"/>
<path d="M2760 6214 c0 -8 5 -12 10 -9 6 3 10 10 10 16 0 5 -4 9 -10 9 -5 0
-10 -7 -10 -16z"/>
<path d="M4730 6198 c0 -9 5 -20 10 -23 6 -3 7 -17 4 -31 -4 -14 -2 -24 5 -24
20 0 17 58 -5 80 -12 12 -14 12 -14 -2z"/>
<path d="M4683 6060 c3 -32 37 -41 37 -10 0 15 -5 20 -14 17 -8 -3 -17 -1 -20
6 -3 7 -4 1 -3 -13z"/>
<path d="M4676 5913 c9 -38 11 -39 16 -3 3 21 0 30 -9 30 -10 0 -11 -8 -7 -27z"/>
<path d="M4888 5933 c7 -3 16 -2 19 1 4 3 -2 6 -13 5 -11 0 -14 -3 -6 -6z"/>
<path d="M4940 5706 c0 -9 5 -16 10 -16 6 0 10 4 10 9 0 6 -4 13 -10 16 -5 3
-10 -1 -10 -9z"/>
<path d="M4980 5695 c0 -5 5 -17 10 -25 5 -8 10 -10 10 -5 0 6 -5 17 -10 25
-5 8 -10 11 -10 5z"/>
<path d="M3976 5681 c-9 -14 5 -42 18 -38 15 5 14 39 -1 44 -6 2 -14 0 -17 -6z"/>
<path d="M4687 5683 c-4 -3 -7 -11 -7 -17 0 -6 5 -5 12 2 6 6 9 14 7 17 -3 3
-9 2 -12 -2z"/>
<path d="M255 5590 c4 -6 11 -8 16 -5 14 9 11 15 -7 15 -8 0 -12 -5 -9 -10z"/>
<path d="M1436 5574 c-5 -14 -4 -15 9 -4 17 14 19 20 6 20 -5 0 -12 -7 -15
-16z"/>
<path d="M5353 5574 c-6 -17 13 -42 24 -30 4 4 1 11 -6 15 -7 5 -10 14 -7 20
4 6 5 11 1 11 -3 0 -8 -7 -12 -16z"/>
<path d="M5026 5533 c-6 -14 -5 -15 5 -6 7 7 10 15 7 18 -3 3 -9 -2 -12 -12z"/>
<path d="M5320 5542 c0 -12 19 -26 26 -19 2 2 -2 10 -11 17 -9 8 -15 8 -15 2z"/>
<path d="M4990 5500 c0 -5 7 -10 15 -10 8 0 15 5 15 10 0 6 -7 10 -15 10 -8 0
-15 -4 -15 -10z"/>
<path d="M5395 5500 c3 -5 11 -10 16 -10 6 0 7 5 4 10 -3 6 -11 10 -16 10 -6
0 -7 -4 -4 -10z"/>
<path d="M5050 5470 c0 -5 7 -10 15 -10 8 0 15 5 15 10 0 6 -7 10 -15 10 -8 0
-15 -4 -15 -10z"/>
<path d="M5395 5440 c-3 -5 -1 -10 4 -10 6 0 11 5 11 10 0 6 -2 10 -4 10 -3 0
-8 -4 -11 -10z"/>
<path d="M5370 5410 c0 -5 5 -10 10 -10 6 0 10 5 10 10 0 6 -4 10 -10 10 -5 0
-10 -4 -10 -10z"/>
<path d="M5405 5410 c4 -6 11 -8 16 -5 14 9 11 15 -7 15 -8 0 -12 -5 -9 -10z"/>
<path d="M5001 5394 c0 -11 3 -14 6 -6 3 7 2 16 -1 19 -3 4 -6 -2 -5 -13z"/>
<path d="M5120 5400 c0 -5 5 -10 10 -10 6 0 10 5 10 10 0 6 -4 10 -10 10 -5 0
-10 -4 -10 -10z"/>
<path d="M4480 5366 c0 -8 -6 -17 -12 -19 -8 -3 -6 -6 5 -6 11 -1 17 6 17 19
0 11 -2 20 -5 20 -3 0 -5 -6 -5 -14z"/>
<path d="M5120 5340 c-20 -12 -10 -19 14 -10 11 3 15 9 10 13 -6 3 -16 2 -24
-3z"/>
<path d="M5165 5330 c3 -5 8 -10 11 -10 2 0 4 5 4 10 0 6 -5 10 -11 10 -5 0
-7 -4 -4 -10z"/>
<path d="M5511 5324 c0 -11 3 -14 6 -6 3 7 2 16 -1 19 -3 4 -6 -2 -5 -13z"/>
<path d="M4546 5322 c-2 -4 -1 -14 5 -22 7 -12 9 -10 9 8 0 23 -5 28 -14 14z"/>
<path d="M5133 5303 c-24 -9 -13 -19 23 -20 32 -1 33 0 17 13 -20 15 -22 15
-40 7z"/>
<path d="M4455 5290 c3 -5 11 -10 16 -10 6 0 7 5 4 10 -3 6 -11 10 -16 10 -6
0 -7 -4 -4 -10z"/>
<path d="M5258 5265 c2 -14 8 -25 13 -25 5 0 9 11 9 25 0 14 -6 25 -14 25 -9
0 -12 -8 -8 -25z"/>
<path d="M5520 5275 c7 -8 17 -15 22 -15 6 0 5 7 -2 15 -7 8 -17 15 -22 15 -6
0 -5 -7 2 -15z"/>
<path d="M4551 5275 c-1 -21 14 -34 29 -25 13 8 13 10 -2 10 -9 0 -19 6 -21
13 -3 6 -6 8 -6 2z"/>
<path d="M5140 5272 c0 -5 9 -17 20 -27 22 -20 26 -14 10 16 -11 19 -30 26
-30 11z"/>
<path d="M4520 5260 c0 -5 5 -10 11 -10 5 0 7 5 4 10 -3 6 -8 10 -11 10 -2 0
-4 -4 -4 -10z"/>
<path d="M1145 5250 c-3 -5 -1 -10 4 -10 6 0 11 5 11 10 0 6 -2 10 -4 10 -3 0
-8 -4 -11 -10z"/>
<path d="M5208 5243 c6 -2 18 -2 25 0 6 3 1 5 -13 5 -14 0 -19 -2 -12 -5z"/>
<path d="M5685 5230 c-3 -5 -2 -10 4 -10 5 0 13 5 16 10 3 6 2 10 -4 10 -5 0
-13 -4 -16 -10z"/>
<path d="M5258 5205 c-4 -16 0 -25 11 -28 9 -3 4 -5 -11 -6 -33 -1 -38 -21 -5
-21 14 0 28 11 39 31 18 30 18 30 -5 25 -12 -3 -16 -3 -9 0 16 8 15 24 -2 24
-7 0 -16 -11 -18 -25z"/>
<path d="M4421 5201 c-8 -5 -9 -11 -3 -15 5 -3 12 1 16 9 6 17 6 18 -13 6z"/>
<path d="M5685 5200 c3 -5 8 -10 11 -10 2 0 4 5 4 10 0 6 -5 10 -11 10 -5 0
-7 -4 -4 -10z"/>
<path d="M5330 5185 c0 -8 2 -15 4 -15 2 0 6 7 10 15 3 8 1 15 -4 15 -6 0 -10
-7 -10 -15z"/>
<path d="M5368 5193 c7 -3 16 -2 19 1 4 3 -2 6 -13 5 -11 0 -14 -3 -6 -6z"/>
<path d="M5720 5179 c0 -5 5 -7 10 -4 6 3 10 8 10 11 0 2 -4 4 -10 4 -5 0 -10
-5 -10 -11z"/>
<path d="M5357 5149 c4 -13 8 -18 11 -10 2 7 -1 18 -6 23 -8 8 -9 4 -5 -13z"/>
<path d="M5400 5150 c0 -5 10 -10 23 -10 18 0 19 2 7 10 -19 13 -30 13 -30 0z"/>
<path d="M5325 5130 c3 -5 10 -10 16 -10 5 0 9 5 9 10 0 6 -7 10 -16 10 -8 0
-12 -4 -9 -10z"/>
<path d="M5297 5110 c3 -11 12 -20 19 -20 18 0 18 8 0 26 -20 19 -25 18 -19
-6z"/>
<path d="M750 5100 c0 -5 5 -10 10 -10 6 0 10 5 10 10 0 6 -4 10 -10 10 -5 0
-10 -4 -10 -10z"/>
<path d="M5627 5087 c-3 -9 -13 -17 -22 -17 -23 0 -18 -16 6 -17 21 -2 34 17
27 39 -3 8 -7 6 -11 -5z"/>
<path d="M4515 5080 c28 -12 37 -12 30 0 -3 6 -16 10 -28 9 -21 0 -21 -1 -2
-9z"/>
<path d="M5402 5070 c0 -14 2 -19 5 -12 2 6 2 18 0 25 -3 6 -5 1 -5 -13z"/>
<path d="M5315 5071 c-6 -11 9 -23 19 -14 9 9 7 23 -3 23 -6 0 -12 -4 -16 -9z"/>
<path d="M5426 5045 c4 -8 10 -12 15 -9 14 8 10 24 -6 24 -9 0 -12 -6 -9 -15z"/>
<path d="M5350 5040 c0 -5 7 -7 15 -3 9 3 22 -2 30 -13 7 -11 17 -15 22 -11 4
5 -1 15 -11 23 -23 16 -56 19 -56 4z"/>
<path d="M5580 5019 c0 -9 7 -19 15 -23 11 -4 15 1 15 18 0 13 -6 23 -15 23
-8 0 -15 -8 -15 -18z"/>
<path d="M5400 4980 c0 -5 7 -10 15 -10 8 0 15 5 15 10 0 6 -7 10 -15 10 -8 0
-15 -4 -15 -10z"/>
<path d="M4379 4818 c-7 -25 -5 -36 6 -31 8 2 11 11 8 19 -5 12 -12 18 -14 12z"/>
<path d="M4340 4759 c0 -5 5 -7 10 -4 6 3 10 8 10 11 0 2 -4 4 -10 4 -5 0 -10
-5 -10 -11z"/>
<path d="M4316 4724 c-10 -25 1 -29 14 -5 6 12 7 21 1 21 -5 0 -12 -7 -15 -16z"/>
<path d="M4266 4625 c-3 -8 -1 -15 3 -15 5 0 11 7 15 15 3 8 1 15 -3 15 -5 0
-11 -7 -15 -15z"/>
<path d="M3080 4517 c0 -10 -4 -15 -10 -12 -17 10 -13 -2 17 -54 2 -2 9 2 18
9 12 10 15 10 15 -4 0 -9 4 -16 9 -16 5 0 12 -11 15 -25 4 -14 11 -23 16 -20
5 3 7 11 5 18 -2 7 -6 24 -9 40 -4 15 -12 27 -18 27 -7 0 -22 12 -35 28 -18
22 -22 24 -23 9z"/>
<path d="M4180 4500 c0 -5 5 -10 10 -10 6 0 10 5 10 10 0 6 -4 10 -10 10 -5 0
-10 -4 -10 -10z"/>
<path d="M2700 4453 c0 -22 2 -25 10 -13 13 20 13 40 0 40 -5 0 -10 -12 -10
-27z"/>
<path d="M1305 4399 c-4 -6 -5 -12 -2 -15 2 -3 7 2 10 11 7 17 1 20 -8 4z"/>
<path d="M2932 4353 c2 -30 7 -51 13 -49 14 4 10 75 -4 89 -9 9 -11 0 -9 -40z"/>
<path d="M1347 4377 c-3 -9 1 -18 9 -21 16 -6 18 2 5 22 -7 11 -9 11 -14 -1z"/>
<path d="M2872 4366 c3 -14 1 -26 -4 -26 -5 0 -7 -4 -3 -9 3 -6 14 -9 25 -8
27 2 26 38 -1 56 -20 12 -21 11 -17 -13z"/>
<path d="M2610 4300 c0 -5 5 -10 10 -10 6 0 10 5 10 10 0 6 -4 10 -10 10 -5 0
-10 -4 -10 -10z"/>
<path d="M1940 4050 c0 -5 5 -10 11 -10 5 0 7 5 4 10 -3 6 -8 10 -11 10 -2 0
-4 -4 -4 -10z"/>
<path d="M1970 4006 c0 -2 7 -7 16 -10 8 -3 12 -2 9 4 -6 10 -25 14 -25 6z"/>
<path d="M7665 450 c3 -5 8 -10 11 -10 2 0 4 5 4 10 0 6 -5 10 -11 10 -5 0 -7
-4 -4 -10z"/>
<path d="M7695 440 c3 -5 10 -10 16 -10 5 0 9 5 9 10 0 6 -7 10 -16 10 -8 0
-12 -4 -9 -10z"/>
<path d="M7610 370 c0 -5 5 -10 11 -10 5 0 7 5 4 10 -3 6 -8 10 -11 10 -2 0
-4 -4 -4 -10z"/>
<path d="M2064 285 c-15 -20 -24 -38 -21 -41 4 -5 30 27 51 64 15 25 -4 11
-30 -23z"/>
<path d="M7622 290 c13 -20 28 -27 28 -12 0 10 -22 32 -32 32 -5 0 -3 -9 4
-20z"/>
<path d="M7677 303 c-4 -3 -7 -11 -7 -17 0 -7 3 -7 8 0 4 7 16 14 27 17 19 5
19 5 -1 6 -11 0 -24 -2 -27 -6z"/>
<path d="M7581 284 c0 -11 3 -14 6 -6 3 7 2 16 -1 19 -3 4 -6 -2 -5 -13z"/>
<path d="M7540 216 c0 -2 9 -6 20 -9 11 -3 18 -1 14 4 -5 9 -34 13 -34 5z"/>
<path d="M7760 220 c-1 -3 -3 -21 -5 -40 -1 -19 0 -30 2 -23 2 7 10 10 18 7 8
-3 12 -11 9 -18 -4 -11 46 -76 59 -76 2 0 2 11 -1 25 -2 14 -9 22 -14 19 -17
-10 -28 19 -22 54 6 32 -7 44 -22 20 -6 -9 -10 -5 -15 12 -4 14 -8 23 -9 20z"/>
<path d="M7857 193 c-4 -3 -7 -11 -7 -17 0 -6 5 -5 12 2 6 6 9 14 7 17 -3 3
-9 2 -12 -2z"/>
<path d="M7827 163 c-4 -3 -7 -13 -7 -22 1 -13 3 -13 11 2 11 19 8 33 -4 20z"/>
<path d="M7860 141 c0 -5 5 -13 10 -16 6 -3 10 -2 10 4 0 5 -4 13 -10 16 -5 3
-10 2 -10 -4z"/>
<path d="M7900 120 c-8 -5 -10 -10 -5 -10 6 0 17 5 25 10 8 5 11 10 5 10 -5 0
-17 -5 -25 -10z"/>
<path d="M7863 92 c19 -20 23 -52 7 -52 -5 0 -10 -9 -10 -20 0 -15 7 -20 25
-20 16 0 25 6 25 15 0 8 5 15 10 15 6 0 10 7 10 16 0 10 -6 14 -14 11 -10 -4
-18 4 -25 24 -6 17 -17 29 -27 29 -16 0 -16 -1 -1 -18z"/>
<path d="M7936 95 c-3 -8 -1 -15 3 -15 5 0 11 7 15 15 3 8 1 15 -3 15 -5 0
-11 -7 -15 -15z"/>
<path d="M7770 91 c0 -5 9 -11 21 -14 16 -4 18 -3 8 9 -13 16 -29 19 -29 5z"/>
<path d="M7818 53 c7 -3 16 -2 19 1 4 3 -2 6 -13 5 -11 0 -14 -3 -6 -6z"/>
<path d="M7550 35 c0 -8 5 -15 10 -15 6 0 10 7 10 15 0 8 -4 15 -10 15 -5 0
-10 -7 -10 -15z"/>
<path d="M7935 10 c-18 -8 -17 -9 8 -9 15 -1 27 4 27 9 0 12 -8 12 -35 0z"/>
</g>
</svg>
